<?xml version="1.0" encoding="UTF-8" standalone="no"?>
<!-- Created with Inkscape (http://www.inkscape.org/) -->

<svg
   xmlns:dc="http://purl.org/dc/elements/1.1/"
   xmlns:cc="http://creativecommons.org/ns#"
   xmlns:rdf="http://www.w3.org/1999/02/22-rdf-syntax-ns#"
   xmlns:svg="http://www.w3.org/2000/svg"
   xmlns="http://www.w3.org/2000/svg"
   version="1.1"
   width="16"
   height="16"
   viewBox="5 -10 16 21.6"
   id="Layer_1"
   xml:space="preserve"><metadata
     id="metadata25"><rdf:RDF><cc:Work
         rdf:about=""><dc:format>image/svg+xml</dc:format><dc:type
           rdf:resource="http://purl.org/dc/dcmitype/StillImage" /><dc:title></dc:title></cc:Work></rdf:RDF></metadata><defs
     id="defs23" /><path
     d="M 13.000001,-10 C 7.0345335,-10 2.2,-5.16547 2.2,0.8 2.2,6.76547 7.0345335,11.6 13.000001,11.6 18.965467,11.6 23.8,6.76547 23.8,0.8 23.8,-5.16547 18.965467,-10 13.000001,-10 z m -1.769452,3.10183 c 0.430402,0.0215 0.754308,0.4085 0.754308,0.8389 l 0,5.23081 c 0,0.0861 0.06196,0.16882 0.148042,0.19034 0.129121,0.0215 0.239315,-0.0404 0.260835,-0.14804 0,-0.0646 0.322788,-1.37839 1.226632,-1.16319 0.107601,0.0215 0.195533,0.0623 0.303133,0.1269 l 2.326371,1.44517 c 0.688643,0.38736 1.092689,1.12162 1.092689,1.89634 l 0,3.20052 c 0,0.60256 -0.232261,1.16281 -0.662663,1.59321 -0.322801,0.32281 -0.500522,0.75394 -0.500522,1.18434 0,0.25824 -0.122809,0.49866 -0.35953,0.60626 C 14.679279,8.6414 13.405555,8.64214 11.963708,8.06109 11.705467,7.95349 11.533682,7.71343 11.533682,7.43367 l 0,-0.36658 c 0,-0.538 -0.26046,-1.03109 -0.690862,-1.33237 C 10.563059,5.51951 10.282936,5.28058 10.046215,5.04385 9.3145311,4.31217 8.9323765,3.34862 8.9323765,2.31566 l 0,-2.15718 c 0,-0.1076 -0.027456,-0.21706 -0.070496,-0.30314 L 8.7561364,-0.335 C 8.5409352,-0.74388 8.6719074,-1.26109 9.0592695,-1.51933 9.16687,-1.58393 9.3178774,-1.62508 9.446998,-1.62508 c 0.215201,0 0.3855008,0.10315 0.5146214,0.25379 l 0,2.7987 c 0,0.3228 -0.1521211,0.63 -0.324282,0.88825 -0.06456,0.1076 -0.015956,0.23152 0.091645,0.29608 0.086081,0.043 0.1892257,0.0226 0.2537859,-0.0635 C 10.24101,2.1824 10.370497,1.75201 10.370497,1.32161 l 0,-7.40209 c 0,-0.47344 0.38661,-0.83927 0.860052,-0.81775 z"
     id="path3002"
     style="fill:#efeee3;fill-opacity:1;stroke:none" /></svg>