<?xml version="1.0" encoding="UTF-8" standalone="no"?>
<svg
   xmlns:dc="http://purl.org/dc/elements/1.1/"
   xmlns:cc="http://creativecommons.org/ns#"
   xmlns:rdf="http://www.w3.org/1999/02/22-rdf-syntax-ns#"
   xmlns:svg="http://www.w3.org/2000/svg"
   xmlns="http://www.w3.org/2000/svg"
   viewBox="0 0 32 32"
   height="32"
   width="32"
   xml:space="preserve"
   version="1.1"
   id="svg4136"><metadata
     id="metadata4142"><rdf:RDF><cc:Work
         rdf:about=""><dc:format>image/svg+xml</dc:format><dc:type
           rdf:resource="http://purl.org/dc/dcmitype/StillImage" /><dc:title></dc:title></cc:Work></rdf:RDF></metadata><defs
     id="defs4140"><clipPath
       id="clipPath4150"
       clipPathUnits="userSpaceOnUse"><path
         id="path4152"
         d="M 0,221 192,221 192,0 0,0 0,221 Z" /></clipPath></defs><g
     transform="matrix(1.25,0,0,-1.25,-54.625,144.37305)"
     id="g4144"><g
       id="g4162"><path
         id="path4158"
         d="M 56.500198,115.49844 A 12.799957,12.799957 0 0 1 43.7,102.69824 12.799957,12.799957 0 0 1 56.500198,89.89844 12.799957,12.799957 0 0 1 69.3,102.69824 12.799957,12.799957 0 0 1 56.500198,115.49844 Z m -1.608925,-4.28414 c 1.50331,0 2.877131,-0.55085 3.933718,-1.46021 0.251022,0.16799 0.517291,0.32316 0.800505,0.46354 0.675341,0.33415 1.423395,0.5019 2.244505,0.5019 0.290529,0 0.60914,-0.0258 0.956731,-0.0759 0.347228,-0.0505 0.669385,-0.1488 0.966225,-0.29347 0.296565,-0.14522 0.54244,-0.3346 0.738411,-0.56834 0.195791,-0.23411 0.293864,-0.5399 0.293864,-0.91877 0,-0.4426 -0.116772,-0.83643 -0.35042,-1.18375 -0.233924,-0.34777 -0.685308,-0.52088 -1.354614,-0.52088 -0.492536,0 -0.817481,0.10086 -0.97532,0.30296 -0.158113,0.20155 -0.274701,0.41918 -0.350419,0.65337 -0.07572,0.23356 -0.164337,0.45486 -0.265386,0.66327 -0.101323,0.20841 -0.347595,0.31245 -0.738808,0.31245 -0.368625,0 -0.737517,-0.0818 -1.106234,-0.24482 0.778678,-1.01662 1.242684,-2.28735 1.242684,-3.66675 0,-0.92435 -0.208445,-1.7999 -0.579813,-2.58305 l -0.931023,-2.22315 1.442019,0 -2.54509,-3.662793 1.498972,0 -2.54509,-4.082427 0,2.830644 -1.499366,0 1.386252,3.628781 -2.582663,0.05656 0.0063,0.0079 c -3.187409,0.163415 -5.721804,2.799515 -5.721804,6.027525 0,3.33336 2.702477,6.03544 6.035836,6.03544 z m 1.173472,-2.59096 c -1.388909,0 -2.515032,-1.12573 -2.515032,-2.51464 0,-1.38882 1.126123,-2.51503 2.515032,-2.51503 1.388907,0 2.514636,1.12621 2.514636,2.51503 0,1.38891 -1.125729,2.51464 -2.514636,2.51464 z"
         style="opacity:1;fill:#efeee3;fill-opacity:1;fill-rule:nonzero;stroke:none;stroke-width:5;stroke-miterlimit:4;stroke-dasharray:none;stroke-opacity:1" /><g
         id="g4146"
         style="fill:#ffffff;fill-opacity:1;stroke:none"
         transform="translate(55.067416,-39.890019)"><g
           id="g4148"
           clip-path="url(#clipPath4150)"
           style="fill:#ffffff;fill-opacity:1;stroke:none"><g
             id="g4154"
             transform="translate(87.8335,130.667)"
             style="fill:#ffffff;fill-opacity:1;stroke:none" /></g></g></g></g></svg>