<?xml version="1.0" encoding="UTF-8" standalone="no"?>
<!-- Created with Inkscape (http://www.inkscape.org/) -->

<svg
   xmlns:dc="http://purl.org/dc/elements/1.1/"
   xmlns:cc="http://creativecommons.org/ns#"
   xmlns:rdf="http://www.w3.org/1999/02/22-rdf-syntax-ns#"
   xmlns:svg="http://www.w3.org/2000/svg"
   xmlns="http://www.w3.org/2000/svg"
   version="1.1"
   width="32"
   height="31.998907"
   viewBox="5 -10 32 43.198525"
   id="Layer_1"
   xml:space="preserve"><metadata
     id="metadata3097"><rdf:RDF><cc:Work
         rdf:about=""><dc:format>image/svg+xml</dc:format><dc:type
           rdf:resource="http://purl.org/dc/dcmitype/StillImage" /><dc:title></dc:title></cc:Work></rdf:RDF></metadata><defs
     id="defs3095" /><path
     d="m 21.253097,-9.7163309 c -11.9274212,0 -21.59798602,9.67056144 -21.59798602,21.6006369 0,9.543264 6.18846742,17.63853 14.77170802,20.496073 1.080693,0.197575 1.474518,-0.469406 1.474518,-1.042241 0,-0.511838 -0.01854,-1.870995 -0.02915,-3.673036 C 9.8640539,28.969892 8.5963902,24.769105 8.5963902,24.769105 7.6138179,22.274888 6.1976436,21.610559 6.1976436,21.610559 4.2364829,20.269967 6.3461563,20.296487 6.3461563,20.296487 c 2.1680176,0.153816 3.3083847,2.226364 3.3083847,2.226364 1.926689,3.300428 5.056063,2.34703 6.286596,1.795412 0.196249,-1.396285 0.753172,-2.348357 1.371094,-2.888041 -4.796173,-0.544989 -9.8389737,-2.398745 -9.8389737,-10.675673 0,-2.3576395 0.8420118,-4.285652 2.2237159,-5.7959723 -0.222769,-0.5463144 -0.9640067,-2.7421802 0.210833,-5.71641194 0,0 1.8139768,-0.58079056 5.9405068,2.21443004 1.72248,-0.47868769 3.570936,-0.71869519 5.407456,-0.72665119 1.833864,0.00795 3.682312,0.2479635 5.407448,0.72665119 4.123882,-2.7952206 5.933874,-2.21443004 5.933874,-2.21443004 1.178821,2.97423174 0.437586,5.17009754 0.214817,5.71641194 1.38435,1.5103203 2.221058,3.4383328 2.221058,5.7959723 0,8.298144 -5.050758,10.124055 -9.862828,10.658435 0.775708,0.666981 1.466559,1.985031 1.466559,4.00056 0,2.886714 -0.02648,5.216507 -0.02648,5.924594 0,0.578139 0.388522,1.250424 1.485126,1.039589 8.576606,-2.862847 14.75977,-10.952809 14.75977,-20.493421 0,-11.93007546 -9.671883,-21.6006369 -21.60196,-21.6006369"
     id="path24"
     style="fill:#efeee3;fill-opacity:1;fill-rule:evenodd;stroke:none" /></svg>