<?xml version="1.0" encoding="UTF-8" standalone="no"?>
<!-- Created with Inkscape (http://www.inkscape.org/) -->

<svg
   xmlns:dc="http://purl.org/dc/elements/1.1/"
   xmlns:cc="http://creativecommons.org/ns#"
   xmlns:rdf="http://www.w3.org/1999/02/22-rdf-syntax-ns#"
   xmlns:svg="http://www.w3.org/2000/svg"
   xmlns="http://www.w3.org/2000/svg"
   version="1.1"
   width="32"
   height="31.998907"
   viewBox="5 -10 32 43.198525"
   id="Layer_1"
   xml:space="preserve"><metadata
     id="metadata3097"><rdf:RDF><cc:Work
         rdf:about=""><dc:format>image/svg+xml</dc:format><dc:type
           rdf:resource="http://purl.org/dc/dcmitype/StillImage" /><dc:title></dc:title></cc:Work></rdf:RDF></metadata><defs
     id="defs3095" /><path
     d="M 16,0 C 7.2180781,0 0.07110868,7.1598822 0,15.90625 -0.03555437,20.172771 1.6028811,24.227881 4.625,27.25 7.6115646,30.307673 11.639729,31.964446 15.90625,32 L 16,32 C 24.781922,32 31.928891,24.840118 32,16.09375 32.071111,7.2762736 24.92414,0.07110889 16,0 z m 3.875,7.84375 c 1.185933,0 2.247959,0.479874 3,1.28125 0.93924,-0.1848942 1.828248,-0.5274143 2.625,-1 -0.307786,0.9628571 -0.961284,1.7709821 -1.8125,2.28125 0.83393,-0.09968 1.635627,-0.297013 2.375,-0.625 -0.55277,0.826799 -1.256901,1.543789 -2.0625,2.125 0.0075,0.176956 0,0.352485 0,0.53125 0,5.448653 -4.134774,11.71875 -11.71875,11.71875 -2.3284637,0 -4.5190219,-0.673791 -6.34375,-1.84375 0.3225636,0.03818 0.6671874,0.0625 1,0.0625 1.9318472,0 3.713876,-0.675302 5.125,-1.78125 -1.804324,-0.03316 -3.3190078,-1.205727 -3.84375,-2.84375 0.251817,0.04803 0.4843141,0.0625 0.75,0.0625 0.3760178,0 0.7477744,-0.06199 1.09375,-0.15625 C 8.1762793,17.277418 6.75,15.622662 6.75,13.625 c 0,-0.01738 -3.707e-4,-0.04532 0,-0.0625 0.5558881,0.308794 1.1991348,0.509843 1.875,0.53125 -1.1063478,-0.739376 -1.84375,-2.006981 -1.84375,-3.4375 0,-0.7556549 0.2075842,-1.4535547 0.5625,-2.0625 2.0336381,2.494565 5.073228,4.140569 8.5,4.3125 -0.07022,-0.30176 -0.09375,-0.614337 -0.09375,-0.9375 0,-2.2770132 1.847984,-4.125 4.125,-4.125 z"
     transform="matrix(1.35,0,0,1.35,-0.60000021,-10)"
     id="path3087"
     style="fill:#efeee3;fill-opacity:1" /></svg>